<?xml version="1.0" encoding="UTF-8"?>
<svg id="Layer_1" xmlns="http://www.w3.org/2000/svg" version="1.1" viewBox="0 0 900 900">
  <!-- Generator: Adobe Illustrator 30.0.0, SVG Export Plug-In . SVG Version: 2.1.1 Build 123)  -->
  <defs>
    <style>
      .st0 {
        fill: #fff;
      }
    </style>
  </defs>
  <path class="st0" d="M900,0v900H0V0h900ZM890.91,450.67c0-243.19-197.15-440.34-440.34-440.34S10.24,207.48,10.24,450.67s197.15,440.34,440.34,440.34,440.34-197.15,440.34-440.34Z"/>
  <path d="M890.91,450.67c0,243.19-197.15,440.34-440.34,440.34S10.24,693.86,10.24,450.67,207.38,10.33,450.58,10.33s440.34,197.15,440.34,440.34ZM871.94,450.67c0-232.72-188.66-421.38-421.38-421.38C217.83,29.29,29.17,217.95,29.17,450.67s188.66,421.38,421.38,421.38,421.38-188.66,421.38-421.38Z"/>
  <path class="st0" d="M871.94,450.67c0,232.72-188.66,421.38-421.38,421.38S29.17,683.4,29.17,450.67,217.83,29.29,450.55,29.29c232.72,0,421.38,188.66,421.38,421.38ZM472.8,60.21l-16.79-2.21-8.02,82,17,2,5.05-48.47,1.95-2.53,31.26,53.74,16.76,2.26,8-81-18-2.01-5.99,49-31.21-52.79ZM276.01,137c-.14-3.73-7.39-12.17-5.57-15.01l37.46-19.47-7.55-13.44-54.34,26.93,37.48,72.88,54.44-28.5-6.04-13.28-2.31-.11-38.57,18.99c-.14-3.73-7.39-12.17-5.57-15.01l32.46-17.47-7.53-13.47-34.35,16.95ZM648.99,131c.11-4.09,8.05-12.27,5.03-15.5l-54-26.5-36.01,72.99,55.92,26.95c.06-3.77,7.49-11.04,5.64-13.94l-35.91-18.13-2.26-2.91,7.21-13.03c5.52.57,32.5,18,35.3,16l5.68-13.94-33.58-17.01,7.65-13.9,39.33,18.92ZM717,201.99l7.84-30.29-14.83-14.7-10.06,46.95-49.95,7.55c4.13,2.43,10.77,13.77,14.53,14.49,5.39,1.03,31.24-6.11,32.47-4.98l-7.84,32.3,14.83,14.7,11.41-48.1,46.59-7.92-13.7-14.86-31.29,4.86ZM194.65,170.35c-1.54-1.35-8.7-7.47-10.01-7.24l-11.63,12.39,22.91,21.1c.28,1.18-1.23,2.9-1.94,3.89-1.45,2.02-17.77,19.43-19,20.07-.77.4-1.23.67-1.98,0l-21.65-20.49c-1.81-.32-12.45,12.36-12.29,13.29l59.43,54.62,12.48-13.48-23.98-20.52v-1.46s21.63-23.45,21.63-23.45l24,20.85c1.83.32,12.51-12.43,12.32-13.32-16.24-14.46-32.17-29.24-48.47-43.64-.84-.74-1.14-2.02-1.83-2.62ZM729.73,450.69c0-154.19-124.99-279.18-279.18-279.18s-279.18,124.99-279.18,279.18,124.99,279.18,279.18,279.18,279.18-124.99,279.18-279.18ZM822.91,329.91l-26.51-62.83-14.38,5.97,8.99,23.94-59.08,24.61,6.09,16.4,60.46-25.03c2.46,3.36,7.09,20.04,9.52,21.56,3.35,2.09,10.83-4.53,14.92-4.63ZM115.95,278.05c-3.84.31-12.72-7.03-15.46-4.08l-24.49,62.02,15.95,4.96,8.57-21.97,60.47,24.02c-.13-4.02,8.01-14.76,5.04-17.52l-57.61-23.44,7.53-23.99ZM149,427H55v5c5.44-.58,5.94-.25,8.17,4.32,5.67,11.66,9.01,34.1,9.82,47.18.42,6.78-1.13,16.96.04,22.96.33,1.7,1.25,2.46,2.47,3.51l8-10.96,9,9.95,9.97-9.97,9.02,9.99,8.02-10c1.96-.02,7.18,7.08,7.49,9.31l3,.71c.39-19.06.98-39.31,5.68-57.83.87-3.41,5.31-18.11,7.98-19.02,1.58-.54,3.66-.03,5.35-.15v-5.01ZM847,427h-95v5.01c8.36-2.44,10.95,10.41,12.71,16.79,4.47,16.23,4.31,29.4,5.25,45.75.12,2.16,1.17,13.84,1.53,14.48,1.54,2.74,2.94-2.81,3.51-3.52,1.56-1.94,3.78-3.74,5.65-5.42,2.96-.52,7.85,10.68,10.34,8.92l7.66-9.91,9.86,9.9,9-9.96,8,10.96c1.23-1.04,2.14-1.81,2.47-3.51,1.12-5.8-.4-15.44.04-21.96,1.18-17.67,4.19-35.91,11.89-51.89l6.07-.66,1.04-4.96ZM776,609c2.55-30.13-32.49-42.97-50.41-16.92-2.49,3.63-19.97,34.28-19.67,36.32l71.48,38.67,7.68-15.44-22.07-13.13,5.88-10.89,31.09-3.13,11.02-18.47-35,2.99ZM171.02,634.97l17.01,2.62c5.34-12.47.35-26.63-6.81-37.31-24.11-36.01-80.59-15.35-77.21,27.21,1.38,17.38,16.74,37.21,34.94,38.48l3.89-13.66c.18-2.71-5.06-3.22-7.17-4.48-30.86-18.43-5.09-56.35,21.86-45.86,13.23,5.15,16.47,20.21,13.48,33.01ZM698.58,731.58c-1.85,1.55-9.3,8.6-10.94,8.31l-10.61-11.46,27.88-25.12c.39-1.48-7.38-11.09-8.92-11.88s-1.45-.22-2.51.5c-8.9,6.13-17.13,16.52-26.16,22.94l-2.33-.35-8.91-10.18,31.51-28.36c1.46-2.67-7.76-10.16-9.16-12.98l-46.32,39.62,52.54,61.25,46.25-39.59c.47-1.86-8.58-12.52-10.25-12.22-7.46,6.33-14.59,13.24-22.06,19.51ZM218,701.98l20.98-25.48-14.96-11.49-50.95,62.36c3.21,2.37,10.62,11.49,14.27,10.7,1.5-.33,17.01-23.09,20.15-23.07,3.52.02,19.64,16.9,24.39,19.12,1.06,2.78-17.93,21.3-19.74,25.58-.27,1.77,11.46,11.5,13.22,11.16l51.72-62.27-13.47-10.53-20.97,23.89-24.64-19.94ZM580.07,750.09l21.46-9.04-6.14-14.98-62.42,24.46,6.63,15.43,23.31-7.87,22.27,57.23c.39,1.16,1.01,1.69,2.27,1.7.85,0,15.6-5.72,15.58-6.56l-22.96-60.36ZM360.83,746.16c-3.98-1.36-13.98-6.22-17.37-4.24l-57.47,66.06,17.29,4.87c5.7-3.54,8.57-14.73,15.73-13.44,8.52,1.54,20.13,7.89,29,10.06l2.05,20.45,16.91,5.08-6.16-88.84ZM453.99,816.99c11.43-.58,24.18.37,33.94-6.56,18.48-13.12,13.63-44.22-8.71-50.16-8.57-2.28-13.85-.35-21.68-.23-7.84.12-15.71-.17-23.55-.05l2.9,81.42,17.64-.37-.54-24.05Z"/>
  <path d="M729.73,450.69c0,154.19-124.99,279.18-279.18,279.18s-279.18-124.99-279.18-279.18,124.99-279.18,279.18-279.18,279.18,124.99,279.18,279.18ZM718.93,450.68c0-148.23-120.16-268.39-268.39-268.39s-268.39,120.16-268.39,268.39,120.16,268.39,268.39,268.39,268.39-120.16,268.39-268.39Z"/>
  <polygon points="472.8 60.21 504.01 112.99 510 64 528.01 66 520.01 147 503.25 144.74 471.99 91 470.04 93.54 464.99 142.01 447.99 140.01 456.01 58 472.8 60.21"/>
  <path d="M776,609l35-2.99-11.02,18.47-31.09,3.13-5.88,10.89,22.07,13.13-7.68,15.44-71.48-38.67c-.3-2.04,17.17-32.69,19.67-36.32,17.92-26.05,52.96-13.21,50.41,16.92ZM747.63,596.29c-9.17.94-14.1,16.44-18.39,23.23l19.18,11.47c3.58-5.74,11.81-16.77,11.62-23.45-.17-5.99-6.48-11.86-12.41-11.25Z"/>
  <path d="M648.99,131l-39.33-18.92-7.65,13.9,33.58,17.01-5.68,13.94c-2.8,2-29.78-15.43-35.3-16l-7.21,13.03,2.26,2.91,35.91,18.13c1.85,2.9-5.58,10.17-5.64,13.94l-55.92-26.95,36.01-72.99,54,26.5c3.02,3.23-4.91,11.41-5.03,15.5Z"/>
  <path d="M276.01,137l34.35-16.95,7.53,13.47-32.46,17.47c-1.82,2.84,5.43,11.28,5.57,15.01l38.57-18.99,2.31.11,6.04,13.28-54.44,28.5-37.48-72.88,54.34-26.93,7.55,13.44-37.46,19.47c-1.82,2.84,5.43,11.28,5.57,15.01Z"/>
  <path d="M698.58,731.58c7.47-6.26,14.59-13.18,22.06-19.51,1.67-.29,10.73,10.37,10.25,12.22l-46.25,39.59-52.54-61.25,46.32-39.62c1.4,2.82,10.62,10.31,9.16,12.98l-31.51,28.36,8.91,10.18,2.33.35c9.03-6.42,17.26-16.81,26.16-22.94,1.06-.73,1.03-1.26,2.51-.5s9.31,10.39,8.92,11.88l-27.88,25.12,10.61,11.46c1.64.28,9.09-6.76,10.94-8.31Z"/>
  <path d="M194.65,170.35c.69.6.99,1.88,1.83,2.62,16.3,14.39,32.23,29.17,48.47,43.64.19.89-10.49,13.64-12.32,13.32l-24-20.85-21.62,23.45v1.46s23.97,20.52,23.97,20.52l-12.48,13.48-59.43-54.62c-.16-.93,10.48-13.61,12.29-13.29l21.65,20.49c.75.67,1.21.4,1.98,0,1.23-.63,17.54-18.05,19-20.07.71-.99,2.22-2.72,1.94-3.89l-22.91-21.1,11.63-12.39c1.31-.22,8.47,5.9,10.01,7.24Z"/>
  <path d="M218,701.98l24.64,19.94,20.97-23.89,13.47,10.53-51.72,62.27c-1.77.34-13.49-9.38-13.22-11.16,1.81-4.28,20.8-22.79,19.74-25.58-4.75-2.22-20.87-19.1-24.39-19.12-3.14-.02-18.64,22.75-20.15,23.07-3.65.79-11.06-8.33-14.27-10.7l50.95-62.36,14.96,11.49-20.98,25.48Z"/>
  <path d="M360.83,746.16l6.16,88.84-16.91-5.08-2.05-20.45c-8.87-2.17-20.48-8.52-29-10.06-7.16-1.3-10.03,9.9-15.73,13.44l-17.29-4.87,57.47-66.06c3.39-1.98,13.39,2.88,17.37,4.24ZM346,765.01c-1.11-.81-6.39,5.71-7.52,6.97-2.75,3.1-7.44,8.22-9.47,11.53-.49.79-1.46.9-1.01,2.48l18.99,6.01-.99-26.99Z"/>
  <path d="M453.99,816.99l.54,24.05-17.64.37-2.9-81.42c7.83-.12,15.7.17,23.55.05,7.84-.12,13.12-2.04,21.68.23,22.34,5.94,27.19,37.04,8.71,50.16-9.76,6.93-22.51,5.98-33.94,6.56ZM472.5,776c-5.22-1.05-13.39.77-19,0-1.38.88-1.46,2.01-1.59,3.49-.45,5.16,2.35,13.96,1.24,19.89l.81,1.14c1.11.91,17.04-.84,19.49-1.59,10.73-3.29,8.95-20.95-.94-22.93Z"/>
  <path d="M717,201.99l31.29-4.86,13.7,14.86-46.59,7.92-11.41,48.1-14.83-14.7,7.84-32.3c-1.23-1.13-27.07,6.01-32.47,4.98-3.76-.72-10.4-12.06-14.53-14.49l49.95-7.55,10.06-46.95,14.83,14.7-7.84,30.29Z"/>
  <path d="M171.02,634.97c2.99-12.8-.25-27.86-13.48-33.01-26.95-10.49-52.72,27.43-21.86,45.86,2.11,1.26,7.34,1.77,7.17,4.48l-3.89,13.66c-18.2-1.27-33.56-21.09-34.94-38.48-3.38-42.57,53.1-63.22,77.21-27.21,7.16,10.68,12.14,24.84,6.81,37.31l-17.01-2.62Z"/>
  <path d="M822.91,329.91c-4.09.1-11.57,6.72-14.92,4.63-2.43-1.52-7.06-18.21-9.52-21.56l-60.46,25.03-6.09-16.4,59.08-24.61-8.99-23.94,14.38-5.97,26.51,62.83Z"/>
  <path d="M580.07,750.09l22.96,60.36c.02.85-14.74,6.57-15.58,6.56-1.26-.01-1.88-.54-2.27-1.7l-22.27-57.23-23.31,7.87-6.63-15.43,62.42-24.46,6.14,14.98-21.46,9.04Z"/>
  <path d="M115.95,278.05l-7.53,23.99,57.61,23.44c2.97,2.75-5.17,13.5-5.04,17.52l-60.47-24.02-8.57,21.97-15.95-4.96,24.49-62.02c2.74-2.95,11.62,4.39,15.46,4.08Z"/>
  <path d="M847,427l-1.04,4.96-6.07.66c-7.7,15.98-10.7,34.22-11.89,51.89-.44,6.53,1.09,16.17-.04,21.96-.33,1.7-1.25,2.46-2.47,3.51l-8-10.96-9,9.96-9.86-9.9-7.66,9.91c-2.49,1.76-7.38-9.44-10.34-8.92-1.86,1.68-4.08,3.48-5.65,5.42-.57.71-1.97,6.27-3.51,3.52-.36-.63-1.4-12.32-1.53-14.48-.94-16.35-.78-29.52-5.25-45.75-1.76-6.38-4.35-19.23-12.72-16.79v-5.01h95.01ZM763,432c1.38,9.63,8.98,16.4,16.36,21.93l8.69-8.45-4.55-13.48h-20.5ZM811,432h-24c2.84,8.36,2.33,16.77,11.48,21.01,10.12-3.65,9.87-12.12,12.52-21.01ZM836,432h-21.5c-1.82,2.27-4.71,11.07-4.26,13.39.21,1.06,7.97,8.74,9.12,8.54,7.11-6.55,13.85-12.28,16.64-21.93ZM771.01,461c1.04.94,6.18-3.88,5.92-5.36l-8.92-8.64,3,14ZM827.99,461l2-13.99c-3.72,1.68-5.45,6.93-8.97,8.02-1.04,1.68,6.41,6.66,6.98,5.97ZM781.01,455.02l8.49,9.96,7.43-8.62-7.43-7.4-8.49,6.05ZM808.66,449.17l-7.59,7.19,8.29,7.56,7.56-8.29-8.26-6.47ZM785.36,464.66c-1.9-2.29-3.37-4.94-6-6.58l-7.34,6.43,8.59,9.45,7.38-5.97v-1.47c-.35-.81-2.03-1.13-2.63-1.85ZM798.63,458.07l-7.62,8.43,8.35,7.43,7.62-7.43c-2.38-1.16-6.29-8.79-8.35-8.43ZM816.35,460.36c-.83.8-5.39,6.35-5.27,6.99l6.29,6.58,8.45-9.44-6.31-6.27c-1,.71-2.28,1.29-3.16,2.14ZM773.01,481.99c9.75-3.75,5.33-8.51-1-12.99l1,12.99ZM789.49,469.2l-6.32,7.31,6.44,7.45,7.32-6.6c.24-1.41-6.1-8.19-7.44-8.16ZM808.53,468.9l-8.12,8.09,7.58,7.6,8.12-8.09-7.58-7.6ZM824.99,483l1-14-6.86,7.69c-.24,1.58,4.32,5.32,5.86,6.31ZM780.53,479c-5.98,6.18-7.93,10.06.83,14.93l7.62-7.43-8.45-7.5ZM798.64,479.08l-6.61,7.42,7.37,7.46,6.56-7.46-7.33-7.42ZM818.87,493.86l5.06-7.23-7.3-7.56-6.67,7.43c.84,2.33,6.51,8.75,8.91,7.36ZM790.98,504.99l5.86-9.35-7.21-6.57-6.56,8.28c1.46,1.28,5.91,9.03,7.9,7.64ZM807.02,504.99c1.44,1.01,7.65-5.75,7.81-7.66l-6.47-8.26-7.25,6.57,5.91,9.35ZM774.01,502l4.88-4.64-4.4-6.35-.48,10.99ZM823.99,500.99l-.49-9.99c-3.67,4.37-7.24,7.58.49,9.99Z"/>
  <path d="M149,427v5.01c-1.68.12-3.76-.39-5.34.15-2.67.91-7.12,15.6-7.98,19.02-4.7,18.52-5.29,38.77-5.68,57.83l-3-.71c-.31-2.23-5.53-9.33-7.49-9.31l-8.02,10-9.02-9.99-9.97,9.97-9-9.95-8,10.96c-1.23-1.04-2.14-1.81-2.47-3.51-1.16-6,.39-16.18-.04-22.96-.82-13.08-4.16-35.53-9.82-47.18-2.22-4.57-2.72-4.91-8.17-4.32v-5h94.01ZM65,432c2.79,9.65,9.52,15.38,16.64,21.93l9.14-8.55-4.28-13.38h-21.5ZM114,432h-24c1.74,9.45,3.46,16.08,11.5,21.98,1.61-2.78,6.55-4.84,7.96-7.03,2.04-3.17,2.72-11.08,4.54-14.96ZM138,432h-20.5c-2,2.35-4.91,10.62-4.52,13.44.45,3.32,6.58,5.74,8.66,8.49,7.38-5.53,14.98-12.3,16.37-21.93ZM78.4,454.64c-2.16-2.82-4.3-5.73-7.39-7.64l2.47,13.02c1.3,2.4,4.27-3.63,6.51-3.04.81-2.49-1.12-1.72-1.59-2.34ZM133,448.01c-1.41-1.18-7.71,6.35-8.93,7.63l4.44,5.35c2.29.45,1.24-1.01,1.61-2.35.96-3.54,1.45-7.24,2.88-10.63ZM91.68,449.21c-1.45.25-7.89,5.5-7.6,7.15l8.29,7.57,7.39-8.44c-1.53-1.86-5.63-6.7-8.08-6.28ZM110.7,449.11l-6.63,7.26,7.43,8.62,8.48-8.48c-2.39-1.73-6.36-8.16-9.28-7.39ZM81.5,458.02l-6.32,6.47c1.18,1.87,7.29,9.87,9.21,9.47l5.54-7.32-8.43-8.62ZM102.98,458.01c-1.83-1.25-7.81,6.87-8.8,8.5l6.4,7.56c2.33.38,8.46-5.86,8.46-7.57l-6.05-8.49ZM114.58,468.37c1.06,1.34,3.99,5.96,5.81,5.59l8.59-9.46-7.34-6.43-8.61,8.46.04,1.4c.48.05,1.24.08,1.52.43ZM80.45,474.6c-1.59-2.03-3.02-4.4-5.44-5.6l1,14c2.17-1.59,6.34-4.63,6.04-7.42-.06-.61-1.3-.59-1.61-.98ZM92.47,468.9l-7.58,7.6,8.12,8.09,7.58-7.6-8.12-8.09ZM111.5,469.02l-7.43,7.62c-.22,1.27,6.06,7.59,7.32,7.32l6.57-7.46-6.47-7.48ZM127.99,481.99l1-12.99c-6.33,4.48-10.74,9.24-1,12.99ZM83.64,479.07l-6.57,8.29,6.43,7.62,7.4-7.62c.25-1.43-5.47-8.58-7.25-8.28ZM102.98,493.99l6-7.49-7.42-7.47-6.6,7.47c0,1.71,6.78,8.37,8.02,7.49ZM119.63,479.07l-7.61,7.43,8.34,7.43,6.61-7.43c-2.22-1.13-5.19-7.82-7.34-7.43ZM93.84,504.8l6.05-9.16-7.25-6.57-6.47,8.26,4.98,7.47h2.69ZM110.02,504.99c2,1.39,6.44-6.36,7.9-7.64l-6.53-8.31-7.24,6.6,5.86,9.35ZM77.01,502l4.92-4.64-4.44-6.36-.49,11ZM126.99,500.99l-.49-9.99c-4.12,3.95-6.85,7.92.49,9.99Z"/>
  <path class="st0" d="M718.93,450.68c0,148.23-120.16,268.39-268.39,268.39s-268.39-120.16-268.39-268.39,120.16-268.39,268.39-268.39,268.39,120.16,268.39,268.39ZM410,674v-285l69,285,34.89-8.1.1-428.4c-.03-.84-.38-1.45-.97-2.03-2.48-2.46-28.84-7.33-34.03-7.47v285l-69.2-283.3c-1.24-2.67-8.24-1.02-11.16-.57-8.06,1.25-15.43,4.91-23.53,5.96l-.15,430.24c.51,2.15,30.58,8.27,35.05,8.66ZM357,279.5v-36l-1.97-1c-68.05,29.59-120.99,92.51-133.03,166.5h34.5l10.52-33h2.98v219.5c10.52,12.29,22.09,23.77,35,33.5v-310.5c15.45-15.65,32.97-28.01,52-39ZM663,379c-19.71-61.35-67.7-112.19-127-137v417c55.95-22.23,104.15-72.06,124.77-128.73.56-1.53,3.5-8.27.73-8.27h-34l-2.23,1.28c-11.47,28.52-30.07,54.78-54.27,73.72v-292c2.4.47,5.15,2.91,7.01,4.49,21.13,17.87,36.5,44.96,48.49,69.51h36.5Z"/>
  <path class="st0" d="M747.63,596.29c5.94-.61,12.24,5.26,12.41,11.25.19,6.67-8.04,17.71-11.62,23.45l-19.18-11.47c4.28-6.79,9.21-22.28,18.39-23.23Z"/>
  <path class="st0" d="M346,765.01l.99,26.99-18.99-6.01c-.46-1.58.52-1.69,1.01-2.48,2.04-3.31,6.72-8.43,9.47-11.53,1.12-1.26,6.41-7.78,7.52-6.97Z"/>
  <path class="st0" d="M472.5,776c9.89,1.99,11.67,19.64.94,22.93-2.45.75-18.38,2.5-19.49,1.59l-.81-1.14c1.11-5.93-1.69-14.74-1.24-19.89.13-1.48.22-2.61,1.59-3.49,5.61.77,13.78-1.05,19,0Z"/>
  <path class="st0" d="M763,432h20.5l4.55,13.48-8.69,8.45c-7.38-5.53-14.98-12.3-16.36-21.93Z"/>
  <path class="st0" d="M836,432c-2.79,9.65-9.52,15.38-16.64,21.93-1.15.2-8.92-7.48-9.12-8.54-.45-2.32,2.44-11.12,4.26-13.39h21.5Z"/>
  <path class="st0" d="M811,432c-2.65,8.89-2.4,17.36-12.52,21.01-9.15-4.24-8.64-12.65-11.48-21.01h24Z"/>
  <polygon class="st0" points="808.66 449.17 816.92 455.64 809.36 463.93 801.07 456.36 808.66 449.17"/>
  <polygon class="st0" points="781.01 455.02 789.5 448.96 796.93 456.36 789.5 464.98 781.01 455.02"/>
  <path class="st0" d="M798.63,458.07c2.06-.36,5.97,7.27,8.35,8.43l-7.62,7.43-8.35-7.43,7.62-8.43Z"/>
  <path class="st0" d="M785.36,464.66c.6.73,2.28,1.04,2.64,1.85v1.47s-7.39,5.97-7.39,5.97l-8.59-9.45,7.34-6.43c2.63,1.64,4.1,4.3,6,6.58Z"/>
  <path class="st0" d="M807.02,504.99l-5.91-9.35,7.25-6.57,6.47,8.26c-.16,1.91-6.36,8.66-7.81,7.66Z"/>
  <path class="st0" d="M816.35,460.36c.88-.85,2.16-1.43,3.16-2.14l6.31,6.27-8.45,9.44-6.29-6.58c-.12-.64,4.44-6.2,5.27-6.99Z"/>
  <path class="st0" d="M790.98,504.99c-1.99,1.39-6.44-6.36-7.9-7.64l6.56-8.28,7.21,6.57-5.86,9.35Z"/>
  <path class="st0" d="M818.87,493.86c-2.4,1.39-8.06-5.04-8.91-7.36l6.67-7.43,7.3,7.56-5.06,7.23Z"/>
  <path class="st0" d="M780.53,479l8.45,7.5-7.62,7.43c-8.76-4.87-6.82-8.75-.83-14.93Z"/>
  <rect class="st0" x="802.53" y="471.38" width="11.46" height="10.74" transform="translate(-100.74 709.78) rotate(-44.91)"/>
  <path class="st0" d="M789.49,469.2c1.34-.03,7.68,6.75,7.44,8.16l-7.32,6.6-6.44-7.45,6.32-7.31Z"/>
  <polygon class="st0" points="798.64 479.08 805.97 486.5 799.41 493.96 792.03 486.5 798.64 479.08"/>
  <path class="st0" d="M827.99,461c-.57.69-8.02-4.3-6.98-5.97,3.52-1.09,5.26-6.35,8.97-8.02l-2,13.99Z"/>
  <path class="st0" d="M771.01,461l-3-14,8.92,8.64c.26,1.48-4.88,6.29-5.92,5.36Z"/>
  <path class="st0" d="M773.01,481.99l-1-12.99c6.33,4.48,10.74,9.24,1,12.99Z"/>
  <path class="st0" d="M824.99,483c-1.54-.99-6.1-4.73-5.86-6.31l6.86-7.69-1,14Z"/>
  <polygon class="st0" points="774.01 502 774.49 491.01 778.89 497.36 774.01 502"/>
  <path class="st0" d="M823.99,500.99c-7.73-2.41-4.16-5.63-.49-9.99l.49,9.99Z"/>
  <path class="st0" d="M138,432c-1.38,9.63-8.99,16.4-16.37,21.93-2.08-2.75-8.21-5.17-8.66-8.49-.38-2.82,2.53-11.1,4.52-13.44h20.5Z"/>
  <path class="st0" d="M65,432h21.5l4.28,13.38-9.14,8.55c-7.11-6.55-13.85-12.28-16.64-21.93Z"/>
  <path class="st0" d="M114,432c-1.83,3.88-2.5,11.79-4.54,14.96-1.41,2.19-6.35,4.25-7.96,7.03-8.04-5.91-9.76-12.54-11.5-21.98h24Z"/>
  <path class="st0" d="M91.68,449.21c2.45-.43,6.55,4.42,8.08,6.28l-7.39,8.44-8.29-7.57c-.29-1.65,6.15-6.9,7.6-7.15Z"/>
  <path class="st0" d="M110.7,449.11c2.92-.76,6.89,5.66,9.28,7.39l-8.48,8.48-7.43-8.62,6.63-7.26Z"/>
  <path class="st0" d="M114.58,468.37c-.27-.35-1.04-.38-1.52-.43l-.04-1.4,8.61-8.46,7.34,6.43-8.59,9.46c-1.82.38-4.75-4.24-5.81-5.59Z"/>
  <path class="st0" d="M102.98,458.01l6.05,8.49c0,1.71-6.13,7.95-8.46,7.57l-6.4-7.56c.99-1.64,6.97-9.76,8.8-8.5Z"/>
  <polygon class="st0" points="93.84 504.8 91.16 504.8 86.17 497.34 92.64 489.08 99.89 495.64 93.84 504.8"/>
  <path class="st0" d="M81.5,458.02l8.43,8.62-5.54,7.32c-1.93.4-8.04-7.6-9.21-9.47l6.32-6.47Z"/>
  <path class="st0" d="M110.02,504.99l-5.86-9.35,7.24-6.6,6.53,8.31c-1.46,1.27-5.91,9.03-7.9,7.64Z"/>
  <path class="st0" d="M83.64,479.07c1.78-.3,7.5,6.85,7.25,8.28l-7.4,7.62-6.43-7.62,6.57-8.29Z"/>
  <path class="st0" d="M119.63,479.07c2.15-.39,5.12,6.3,7.34,7.43l-6.61,7.43-8.34-7.43,7.61-7.43Z"/>
  <rect class="st0" x="87.38" y="471.02" width="10.74" height="11.46" transform="translate(-310.36 205.83) rotate(-45.09)"/>
  <path class="st0" d="M102.98,493.99c-1.24.88-8.02-5.78-8.02-7.49l6.6-7.47,7.42,7.47-6,7.49Z"/>
  <path class="st0" d="M111.5,469.02l6.47,7.48-6.57,7.46c-1.27.27-7.55-6.05-7.32-7.32l7.43-7.62Z"/>
  <path class="st0" d="M78.4,454.64c.48.62,2.4-.15,1.59,2.34-2.24-.59-5.21,5.44-6.51,3.04l-2.47-13.02c3.1,1.91,5.23,4.82,7.39,7.64Z"/>
  <path class="st0" d="M133,448.01c-1.43,3.39-1.92,7.09-2.88,10.63-.37,1.35.69,2.8-1.61,2.35l-4.44-5.35c1.22-1.28,7.52-8.8,8.93-7.63Z"/>
  <path class="st0" d="M80.45,474.6c.31.39,1.54.37,1.61.98.3,2.8-3.87,5.84-6.04,7.42l-1-14c2.42,1.2,3.85,3.57,5.44,5.6Z"/>
  <path class="st0" d="M127.99,481.99c-9.75-3.75-5.33-8.51,1-12.99l-1,12.99Z"/>
  <polygon class="st0" points="77.01 502 77.5 491 81.93 497.36 77.01 502"/>
  <path class="st0" d="M126.99,500.99c-7.34-2.07-4.61-6.04-.49-9.99l.49,9.99Z"/>
  <path d="M410,674c-4.46-.4-34.53-6.51-35.05-8.66l.15-430.24c8.1-1.05,15.47-4.72,23.53-5.96,2.93-.45,9.93-2.1,11.16.57l69.2,283.3V228c5.19.14,31.55,5.01,34.03,7.47.58.58.93,1.19.97,2.03l-.1,428.4-34.89,8.1-69-285v285Z"/>
  <path d="M663,379h-36.5c-11.99-24.56-27.35-51.64-48.49-69.51-1.86-1.58-4.61-4.01-7.01-4.49v292c24.2-18.94,42.79-45.2,54.27-73.72l2.23-1.28h34c2.77,0-.18,6.74-.73,8.27-20.62,56.67-68.82,106.5-124.77,128.73V242c59.3,24.81,107.29,75.65,127,137Z"/>
  <path d="M357,279.5c-19.03,10.99-36.55,23.35-52,39v310.5c-12.91-9.73-24.48-21.21-35-33.5v-219.5h-2.98s-10.52,33-10.52,33h-34.5c12.04-73.99,64.98-136.91,133.03-166.5l1.97,1v36Z"/>
</svg>